<svg xmlns="http://www.w3.org/2000/svg" xmlns:xlink="http://www.w3.org/1999/xlink" width="190" height="65" viewBox="0 0 190 65">
  <defs>
    <clipPath id="clip-path">
      <rect width="190" height="65" fill="none"/>
    </clipPath>
  </defs>
  <g id="Слой_x0020_1" clip-path="url(#clip-path)">
    <g id="Слой_x0020_1-2" data-name="Слой_x0020_1" transform="translate(-0.244 -0.061)">
      <rect id="Rectangle_185" data-name="Rectangle 185" width="190" height="65" rx="12" transform="translate(0.244 0.061)" fill="#fff"/>
      <g id="_1880798528272" transform="translate(15.759 11.384)">
        <path id="Fill-2" d="M4361.334,5655.2a8.434,8.434,0,0,1,4.007-7.068,8.679,8.679,0,0,0-6.795-3.676c-2.854-.3-5.627,1.713-7.083,1.713-1.477,0-3.73-1.674-6.138-1.639a9.028,9.028,0,0,0-7.6,4.65c-3.288,5.692-.841,14.069,2.314,18.68,1.585,2.25,3.418,4.776,5.84,4.687,2.357-.094,3.245-1.506,6.087-1.506s3.651,1.506,6.113,1.451c2.541-.039,4.122-2.264,5.653-4.542a18.385,18.385,0,0,0,2.58-5.261A8.165,8.165,0,0,1,4361.334,5655.2Z" transform="translate(-4336.158 -5635.49)" fill="#2b2a29" fill-rule="evenodd"/>
        <g id="Group_560" data-name="Group 560" transform="translate(14.976)">
          <path id="Fill-3" d="M8509.245,3162.944a8.327,8.327,0,0,0,1.9-5.944,8.436,8.436,0,0,0-5.459,2.828,7.972,7.972,0,0,0-1.951,5.721,6.972,6.972,0,0,0,5.514-2.605Zm0,0Z" transform="translate(-8503.69 -3157)" fill="#2b2a29" fill-rule="evenodd"/>
        </g>
        <path id="Fill-4" d="M16334.309,8018.334h-3.3l-1.807-5.682h-6.285l-1.715,5.682H16318l6.217-19.333h3.85l6.242,19.333Zm-5.643-8.064-1.635-5.042c-.17-.521-.5-1.725-.967-3.636H16326c-.193.822-.5,2.041-.918,3.636l-1.607,5.042Z" transform="translate(-16274.941 -7981.601)" fill="#2b2a29" fill-rule="evenodd"/>
        <path id="Fill-5" d="M21580.432,9426.095a7.836,7.836,0,0,1-1.939,5.616,5.633,5.633,0,0,1-4.293,1.832,4.3,4.3,0,0,1-3.979-1.976v7.316h-3.1v-15.015c0-1.49-.041-3.011-.119-4.581h2.721l.172,2.214h.051a5.5,5.5,0,0,1,8.813-.551,7.6,7.6,0,0,1,1.676,5.144Zm-3.158.106a5.723,5.723,0,0,0-.914-3.353,3.169,3.169,0,0,0-2.7-1.372,3.275,3.275,0,0,0-2.08.759,3.51,3.51,0,0,0-1.219,1.99,4.081,4.081,0,0,0-.143.941v2.328a3.731,3.731,0,0,0,.93,2.565,3.09,3.09,0,0,0,2.418,1.05,3.2,3.2,0,0,0,2.725-1.351,5.921,5.921,0,0,0,.98-3.559Z" transform="translate(-21505.08 -9396.498)" fill="#2b2a29" fill-rule="evenodd"/>
        <path id="Fill-6" d="M26038.432,9426.095a7.861,7.861,0,0,1-1.937,5.616,5.633,5.633,0,0,1-4.293,1.832,4.3,4.3,0,0,1-3.98-1.976v7.316h-3.1v-15.015c0-1.49-.043-3.011-.117-4.581h2.723l.168,2.214h.055a5.5,5.5,0,0,1,8.809-.551,7.566,7.566,0,0,1,1.676,5.144Zm-3.152.106a5.71,5.71,0,0,0-.918-3.353,3.171,3.171,0,0,0-2.7-1.372,3.291,3.291,0,0,0-2.086.759,3.568,3.568,0,0,0-1.215,1.99,4.326,4.326,0,0,0-.145.941v2.328a3.749,3.749,0,0,0,.93,2.565,3.089,3.089,0,0,0,2.422,1.05,3.176,3.176,0,0,0,2.723-1.351,5.817,5.817,0,0,0,.984-3.559Z" transform="translate(-25947.063 -9396.498)" fill="#2b2a29" fill-rule="evenodd"/>
        <g id="Group_561" data-name="Group 561" transform="translate(97.328 17.123)">
          <path id="Fill-7" d="M31431.979,7936.191a5.17,5.17,0,0,1-1.715,4.018,7.612,7.612,0,0,1-5.262,1.689,9.213,9.213,0,0,1-5-1.2l.723-2.58a8.69,8.69,0,0,0,4.477,1.2,4.217,4.217,0,0,0,2.719-.784,2.567,2.567,0,0,0,.984-2.109,2.72,2.72,0,0,0-.8-1.977,7.416,7.416,0,0,0-2.668-1.49c-3.414-1.27-5.105-3.116-5.105-5.538a4.9,4.9,0,0,1,1.793-3.9,7.111,7.111,0,0,1,4.754-1.521,9.34,9.34,0,0,1,4.383.917l-.785,2.512a7.718,7.718,0,0,0-3.719-.888,3.836,3.836,0,0,0-2.562.8,2.32,2.32,0,0,0-.773,1.754,2.355,2.355,0,0,0,.891,1.887,10.14,10.14,0,0,0,2.813,1.491,9.488,9.488,0,0,1,3.668,2.354,4.913,4.913,0,0,1,1.188,3.367Zm0,0Z" transform="translate(-31420.002 -7922)" fill="#2b2a29" fill-rule="evenodd"/>
        </g>
        <path id="Fill-8" d="M35257.484,8539.8h-3.422v6.766c0,1.715.6,2.58,1.813,2.58a5.693,5.693,0,0,0,1.375-.147l.086,2.357a7.124,7.124,0,0,1-2.406.342,3.7,3.7,0,0,1-2.867-1.125,5.463,5.463,0,0,1-1.039-3.759v-7.029H35249v-2.318h2.023v-2.551l3.039-.916v3.467h3.422Z" transform="translate(-35137.91 -8514.678)" fill="#2b2a29" fill-rule="evenodd"/>
        <path id="Fill-9" d="M38099.656,9430.135a7.671,7.671,0,0,1-1.832,5.275,6.572,6.572,0,0,1-5.1,2.119,6.276,6.276,0,0,1-4.895-2.027,7.358,7.358,0,0,1-1.828-5.131,7.639,7.639,0,0,1,1.871-5.3,6.559,6.559,0,0,1,5.07-2.066,6.363,6.363,0,0,1,4.934,2.041,7.26,7.26,0,0,1,1.781,5.094Zm-3.207.064a6.2,6.2,0,0,0-.824-3.285,3.212,3.212,0,0,0-5.629,0,7.092,7.092,0,0,0,0,6.637,3.18,3.18,0,0,0,5.6-.027,6.314,6.314,0,0,0,.852-3.324Z" transform="translate(-37964.719 -9400.482)" fill="#2b2a29" fill-rule="evenodd"/>
        <g id="Group_562" data-name="Group 562" transform="translate(137.54 22.503)">
          <path id="Fill-10" d="M42617.473,9422.012a5.57,5.57,0,0,0-.98-.079,2.928,2.928,0,0,0-2.527,1.229,4.666,4.666,0,0,0-.773,2.749v7.32h-3.1v-9.555c0-1.609-.027-3.076-.094-4.388h2.7l.121,2.67h.086a4.779,4.779,0,0,1,1.547-2.21,3.761,3.761,0,0,1,2.242-.747,6.394,6.394,0,0,1,.773.053l.008,2.958Zm0,0Z" transform="translate(-42610 -9419.001)" fill="#2b2a29" fill-rule="evenodd"/>
        </g>
        <path id="Fill-11" d="M45107.395,9414.637a6.85,6.85,0,0,1-.117,1.4h-9.289a4.045,4.045,0,0,0,1.344,3.154,4.665,4.665,0,0,0,3.043.969,10.457,10.457,0,0,0,3.754-.654l.484,2.145a11.583,11.583,0,0,1-4.672.865,6.782,6.782,0,0,1-5.094-1.912,7.047,7.047,0,0,1-1.844-5.117,8.023,8.023,0,0,1,1.727-5.25,5.942,5.942,0,0,1,4.871-2.238,5.178,5.178,0,0,1,4.555,2.238,7.581,7.581,0,0,1,1.238,4.4Zm-2.953-.8a4.145,4.145,0,0,0-.605-2.383,2.7,2.7,0,0,0-2.457-1.3,2.944,2.944,0,0,0-2.461,1.258,4.7,4.7,0,0,0-.918,2.406Z" transform="translate(-44948.535 -9385.536)" fill="#2b2a29" fill-rule="evenodd"/>
        <path id="Fill-12" d="M16646.025,3440.5h-1.621l-.891-2.789h-3.09l-.852,2.789H16638l3.049-9.5h1.887Zm-2.789-3.967-.8-2.487c-.08-.248-.234-.849-.486-1.793h-.025c-.1.406-.234,1-.455,1.793l-.787,2.487Z" transform="translate(-16593.793 -3430.015)" fill="#2b2a29" fill-rule="evenodd"/>
        <path id="Fill-13" d="M19172.586,4166l-2.594,6.86h-1.475L19166,4166h1.639l1.164,3.626c.2.6.367,1.179.5,1.729h.037q.179-.743.5-1.729l1.148-3.626Z" transform="translate(-19112.707 -4162.374)" fill="#2b2a29" fill-rule="evenodd"/>
        <path id="Fill-14" d="M21356.256,4140.976l-.119-.784h-.039a2.365,2.365,0,0,1-2,.942,1.989,1.989,0,0,1-2.1-2.017c0-1.688,1.467-2.565,4.006-2.565v-.129c0-.906-.484-1.352-1.43-1.352a3.225,3.225,0,0,0-1.793.51l-.312-.991a4.374,4.374,0,0,1,2.355-.59c1.795,0,2.7.941,2.7,2.839v2.527a8.946,8.946,0,0,0,.105,1.635l-1.373-.025Zm-.215-3.418c-1.684,0-2.535.406-2.535,1.392a.969.969,0,0,0,1.047,1.07,1.452,1.452,0,0,0,1.488-1.4Z" transform="translate(-21290.852 -4130.489)" fill="#2b2a29" fill-rule="evenodd"/>
        <path id="Fill-15" d="M23581.906,3348.818a.909.909,0,1,1,.023-1.818.91.91,0,1,1-.023,1.818Zm-.73,1.125h1.512v6.849h-1.512Z" transform="translate(-23511.842 -3346.317)" fill="#2b2a29" fill-rule="evenodd"/>
        <path id="Fill-16" d="M24805,3292h1.52v9.99H24805Z" transform="translate(-24731.445 -3291.515)" fill="#2b2a29" fill-rule="evenodd"/>
        <path id="Fill-17" d="M25847.258,4136.99l-.121-.784h-.039a2.36,2.36,0,0,1-2,.942,1.993,1.993,0,0,1-2.1-2.016c0-1.689,1.469-2.566,4.008-2.566v-.129c0-.906-.484-1.352-1.426-1.352a3.212,3.212,0,0,0-1.793.51l-.316-1.006a4.4,4.4,0,0,1,2.355-.59c1.793,0,2.7.942,2.7,2.839v2.526a11.181,11.181,0,0,0,.094,1.638h-1.359Zm-.211-3.417c-1.687,0-2.539.406-2.539,1.391a.969.969,0,0,0,1.047,1.071,1.456,1.456,0,0,0,1.492-1.4Z" transform="translate(-25765.713 -4126.503)" fill="#2b2a29" fill-rule="evenodd"/>
        <path id="Fill-18" d="M28108.578,3302.159a2.326,2.326,0,0,1-2.16-1.218h-.027l-.094,1.06h-1.3c.043-.549.055-1.164.055-1.843V3292h1.531v4.15h.027a2.352,2.352,0,0,1,2.184-1.139c1.652,0,2.8,1.412,2.8,3.468C28111.6,3300.6,28110.316,3302.159,28108.578,3302.159Zm-.32-5.958a1.751,1.751,0,0,0-1.672,1.822v1.2a1.673,1.673,0,0,0,1.648,1.714c1.141,0,1.82-.931,1.82-2.408,0-1.387-.7-2.332-1.8-2.332Z" transform="translate(-28019.584 -3291.515)" fill="#2b2a29" fill-rule="evenodd"/>
        <path id="Fill-19" d="M30568,3292h1.516v9.99H30568Z" transform="translate(-30473.734 -3291.515)" fill="#2b2a29" fill-rule="evenodd"/>
        <path id="Fill-20" d="M31623.035,4126.953h-4.57a1.969,1.969,0,0,0,2.16,2.026,5.073,5.073,0,0,0,1.844-.326l.238,1.06a5.49,5.49,0,0,1-2.289.421,3.178,3.178,0,0,1-3.414-3.457c0-2.1,1.293-3.676,3.242-3.676,1.742,0,2.855,1.293,2.855,3.259A2.728,2.728,0,0,1,31623.035,4126.953Zm-1.387-1.089c0-1.06-.535-1.8-1.508-1.8a1.811,1.811,0,0,0-1.664,1.8Z" transform="translate(-31518.969 -4119.529)" fill="#2b2a29" fill-rule="evenodd"/>
        <path id="Fill-21" d="M34949.3,4137.148a3.258,3.258,0,0,1-3.3-3.522,3.337,3.337,0,0,1,3.418-3.626,3.232,3.232,0,0,1,3.3,3.508A3.36,3.36,0,0,1,34949.3,4137.148Zm.059-6.034c-1.1,0-1.8,1.031-1.8,2.458s.715,2.437,1.793,2.437,1.789-1.1,1.789-2.473c-.016-1.391-.707-2.422-1.785-2.422Z" transform="translate(-34836.004 -4126.503)" fill="#2b2a29" fill-rule="evenodd"/>
        <path id="Fill-22" d="M37429,4133h-1.52v-3.938c0-1.218-.473-1.822-1.387-1.822a1.574,1.574,0,0,0-1.52,1.678v4.071h-1.516v-4.883c0-.6-.016-1.258-.059-1.966h1.34l.066,1.06h.039a2.458,2.458,0,0,1,2.172-1.2c1.438,0,2.383,1.1,2.383,2.893Z" transform="translate(-37304.098 -4122.518)" fill="#2b2a29" fill-rule="evenodd"/>
        <g id="Group_563" data-name="Group 563" transform="translate(130.709 1.926)">
          <path id="Fill-23" d="M40713.156,3695.854h-1.684v3.324c0,.852.3,1.272.895,1.272a3.3,3.3,0,0,0,.684-.068l.035,1.154a3.266,3.266,0,0,1-1.176.168c-1.2,0-1.91-.668-1.91-2.393v-3.457h-1v-1.139h1v-1.258l1.488-.457v1.7h1.676v1.154Zm0,0Z" transform="translate(-40709.004 -3693)" fill="#2b2a29" fill-rule="evenodd"/>
        </g>
        <g id="Group_564" data-name="Group 564" transform="translate(136.979 0.485)">
          <path id="Fill-24" d="M42459.949,3302h-1.523v-3.913c0-1.229-.469-1.847-1.383-1.847a1.493,1.493,0,0,0-1.52,1.625v4.125H42454V3292h1.52v4.111h.023a2.3,2.3,0,0,1,2.055-1.114c1.453,0,2.348,1.128,2.348,2.921V3302Zm0,0Z" transform="translate(-42454.004 -3292)" fill="#2b2a29" fill-rule="evenodd"/>
        </g>
        <path id="Fill-25" d="M44598.039,4126.953h-4.566a1.965,1.965,0,0,0,2.16,2.026,5.1,5.1,0,0,0,1.844-.326l.234,1.06a5.5,5.5,0,0,1-2.285.421,3.182,3.182,0,0,1-3.422-3.457c0-2.1,1.3-3.676,3.246-3.676,1.746,0,2.852,1.293,2.852,3.259A2.578,2.578,0,0,1,44598.039,4126.953Zm-1.391-1.089c0-1.06-.531-1.8-1.5-1.8a1.788,1.788,0,0,0-1.656,1.8Z" transform="translate(-44447.344 -4119.529)" fill="#2b2a29" fill-rule="evenodd"/>
      </g>
    </g>
  </g>
</svg>
