<svg xmlns="http://www.w3.org/2000/svg" xmlns:xlink="http://www.w3.org/1999/xlink" width="190" height="65" viewBox="0 0 190 65">
  <defs>
    <clipPath id="clip-path">
      <rect width="190" height="65" fill="none"/>
    </clipPath>
  </defs>
  <g id="Слой_x0020_1" clip-path="url(#clip-path)">
    <g id="Слой_x0020_1-2" data-name="Слой_x0020_1" transform="translate(0.125 -0.469)">
      <rect id="Rectangle_184" data-name="Rectangle 184" width="190" height="65" rx="12" transform="translate(-0.125 0.469)" fill="#fff"/>
      <path id="Path_1211" data-name="Path 1211" d="M7244.3,1724.569a3.765,3.765,0,0,1-.974,2.76,4.3,4.3,0,1,1-3.036-7.329,3.584,3.584,0,0,1,1.656.422,3.005,3.005,0,0,1,1.242.966l-.69.69a2.573,2.573,0,0,0-2.208-.966,2.751,2.751,0,0,0-2.215.966,3.341,3.341,0,0,0,0,4.7,3.609,3.609,0,0,0,2.208.974,3.037,3.037,0,0,0,2.354-.974,2.285,2.285,0,0,0,.69-1.656h-3.044l.008-1.112,4.01.008Zm6.355-3.458h-3.734v2.63h3.458v.966h-3.458v2.63h3.734v1.1h-4.838v-8.295h4.846Zm4.569,7.329h-1.112v-7.329h-2.346v-.966h5.8v.966h-2.345Zm6.354,0,.009-8.295h1.1v8.295Zm5.812.008h-1.1v-7.337h-2.354v-.966h5.673v.974h-2.354v7.329Zm13.141-1.1a4.088,4.088,0,0,1-3.044,1.242,4.3,4.3,0,1,1,4.285-4.286A4.088,4.088,0,0,1,7280.534,1727.345Zm-5.26-.7a3.247,3.247,0,0,0,2.216.974,2.727,2.727,0,0,0,2.208-.974,3.3,3.3,0,0,0,.974-2.346,2.859,2.859,0,0,0-.966-2.354,3.292,3.292,0,0,0-2.216-.966,2.773,2.773,0,0,0-2.216.966,3.335,3.335,0,0,0-.966,2.354A2.844,2.844,0,0,0,7275.274,1726.647Zm8.019,1.8.008-8.295h1.242l4.009,6.5v-6.5h1.1v8.295h-1.1l-4.285-6.777v6.777Z" transform="translate(-7177.383 -1705.717)" fill="#2b2a29" fill-rule="evenodd"/>
      <path id="Path_1212" data-name="Path 1212" d="M7227.579,1707.707a4.982,4.982,0,0,1-.235,1.583,3.219,3.219,0,0,1-.779,1.282,4.279,4.279,0,0,1-1.413.958,4.348,4.348,0,0,1-1.729.325,4.527,4.527,0,0,1-1.729-.325,4.66,4.66,0,0,1-2.37-2.378,4.771,4.771,0,0,1,0-3.458,4.662,4.662,0,0,1,2.378-2.37,4.5,4.5,0,0,1,1.729-.325,3.479,3.479,0,0,1,.86.114,4.285,4.285,0,0,1,.86.317,5.32,5.32,0,0,1,.747.446,2.628,2.628,0,0,1,.552.568l.057.1-.876.877-.1-.114a2.2,2.2,0,0,0-.9-.706,3.029,3.029,0,0,0-1.2-.211,3.1,3.1,0,0,0-1.217.235,2.306,2.306,0,0,0-.893.674l-.009.016-.008.008a2.237,2.237,0,0,0-.69.917,3.991,3.991,0,0,0,0,2.654,2.288,2.288,0,0,0,.682.917,5.6,5.6,0,0,0,1.03.674,2.568,2.568,0,0,0,1.1.268,3.251,3.251,0,0,0,1.234-.219,3.135,3.135,0,0,0,1.023-.714,2.195,2.195,0,0,0,.487-.714,2.152,2.152,0,0,0,.163-.706h-3.044l.008-1.388,4.286.008Zm-.5,1.493a4.885,4.885,0,0,0,.219-1.493v-.414l-3.742-.008v.836h3.043v.138a2.432,2.432,0,0,1-.73,1.753,3.541,3.541,0,0,1-1.12.779,3.447,3.447,0,0,1-1.331.227,2.821,2.821,0,0,1-1.217-.284,6.063,6.063,0,0,1-1.08-.714,2.454,2.454,0,0,1-.763-1.031,4.153,4.153,0,0,1,0-2.849,2.459,2.459,0,0,1,.755-1.023,2.622,2.622,0,0,1,.982-.747,3.386,3.386,0,0,1,1.331-.26,3.31,3.31,0,0,1,1.315.235,2.531,2.531,0,0,1,.9.666l.5-.5a2.042,2.042,0,0,0-.422-.414,4.294,4.294,0,0,0-.7-.414,3.593,3.593,0,0,0-.8-.3,3.016,3.016,0,0,0-.8-.106,4.327,4.327,0,0,0-1.631.3,4.455,4.455,0,0,0-2.224,2.224,4.559,4.559,0,0,0,0,3.255,4.454,4.454,0,0,0,2.224,2.224,4.56,4.56,0,0,0,3.255,0,4.035,4.035,0,0,0,1.314-.909A2.931,2.931,0,0,0,7227.083,1709.2Zm6.712-4.813h-3.6v2.354h3.458v1.242H7230.2v2.354h3.733v1.38h-5.113v-8.571h5.122l-.008,1.242Zm-3.733-.276h3.6v-.69H7229.1v8.019h4.561v-.828h-3.734v-2.906h3.458v-.69h-3.458v-2.906Zm8.3,7.6h-1.25v-7.329h-2.346v-1.242h6.079v1.242H7238.5l-.008,7.329Zm-.974-.276h.836v-7.329h2.346v-.69h-5.527v.69h2.346Zm7.19.138.008-8.433h1.38v8.571h-1.388Zm.284-8.157-.008,8.019h.836v-8.019Zm5.666,8.3h-1.242v-7.337h-2.354v-1.242h5.949v1.25h-2.354v7.053h0Zm-.966-.276h.69v-7.329h2.354v-.7h-5.4v.69l2.354.008Zm14.2-.869a4.575,4.575,0,0,1-4.87.958,4.662,4.662,0,0,1-2.378-2.37,4.881,4.881,0,0,1,0-3.458,4.286,4.286,0,0,1,.966-1.412,4.38,4.38,0,0,1,1.412-.966,4.879,4.879,0,0,1,3.458,0,4.385,4.385,0,0,1,1.412.966,4.232,4.232,0,0,1,.958,1.412,4.421,4.421,0,0,1-.958,4.87Zm-1.518.706a4.252,4.252,0,0,0,1.323-.9,4.136,4.136,0,0,0,0-5.892,3.915,3.915,0,0,0-1.323-.9,4.538,4.538,0,0,0-3.247,0,3.915,3.915,0,0,0-1.323.9,4,4,0,0,0-.9,1.315,4.552,4.552,0,0,0,0,3.255,3.992,3.992,0,0,0,.9,1.323,3.945,3.945,0,0,0,2.946,1.2A4.163,4.163,0,0,0,7262.251,1711.287Zm-3.742-1.6a3.244,3.244,0,0,0,1.006.682,2.78,2.78,0,0,0,1.112.252,2.931,2.931,0,0,0,1.209-.244,2.249,2.249,0,0,0,.893-.674l.008-.008v-.008a2.985,2.985,0,0,0,.69-1.031,3.132,3.132,0,0,0,.244-1.218,3.435,3.435,0,0,0-.235-1.323,2.245,2.245,0,0,0-.682-.925h-.008v-.008a3.387,3.387,0,0,0-1.006-.682,2.772,2.772,0,0,0-1.112-.243,3.1,3.1,0,0,0-1.217.235,2.3,2.3,0,0,0-.884.682l-.009.008h-.008a3.258,3.258,0,0,0-.925,2.256,3.482,3.482,0,0,0,.235,1.323,2.212,2.212,0,0,0,.682.917l.008.008Zm.893.942a3.8,3.8,0,0,1-1.079-.739,2.586,2.586,0,0,1-.763-1.023,3.846,3.846,0,0,1-.252-1.428,3.5,3.5,0,0,1,.26-1.323,3.684,3.684,0,0,1,.747-1.128,2.578,2.578,0,0,1,.99-.747,3.345,3.345,0,0,1,1.323-.26,2.99,2.99,0,0,1,1.218.268,3.527,3.527,0,0,1,1.087.739,2.479,2.479,0,0,1,.763,1.023,3.827,3.827,0,0,1,.251,1.428,3.339,3.339,0,0,1-.268,1.323,3.4,3.4,0,0,1-.738,1.12,2.59,2.59,0,0,1-.99.747,3.162,3.162,0,0,1-2.549,0Zm6.891.958.008-8.433h1.453l3.8,6.152v-6.152h1.38v8.571h-1.323l-4.066-6.436v6.436h-1.25Zm.284-8.157-.008,8.019h.7v-7.11l4.5,7.11h.893v-8.019h-.828v6.85l-4.229-6.85Z" transform="translate(-7160.521 -1688.855)" fill="#2b2a29"/>
      <path id="Path_1213" data-name="Path 1213" d="M7222.334,3464.509a5.822,5.822,0,0,0-5.949,5.949,5.9,5.9,0,0,0,5.949,5.941,5.815,5.815,0,0,0,5.949-5.941A5.742,5.742,0,0,0,7222.334,3464.509Zm0,9.407a3.607,3.607,0,0,1,0-7.191,3.351,3.351,0,0,1,3.319,3.6A3.438,3.438,0,0,1,7222.334,3473.916Zm-12.864-9.407a5.814,5.814,0,0,0-5.941,5.941,5.9,5.9,0,0,0,5.941,5.949,5.816,5.816,0,0,0,5.949-5.941A5.742,5.742,0,0,0,7209.47,3464.509Zm0,9.4a3.607,3.607,0,0,1,0-7.191,3.351,3.351,0,0,1,3.319,3.6A3.428,3.428,0,0,1,7209.47,3473.908Zm-15.348-7.6v2.484l5.949.008a5.226,5.226,0,0,1-1.388,3.174,6.085,6.085,0,0,1-4.562,1.8,6.442,6.442,0,0,1-6.5-6.639,6.526,6.526,0,0,1,6.5-6.639,6.851,6.851,0,0,1,4.569,1.8l1.794-1.8a8.909,8.909,0,0,0-6.226-2.492,9.132,9.132,0,1,0,0,18.262,7.981,7.981,0,0,0,6.363-2.63,8.378,8.378,0,0,0,2.216-5.811,5.166,5.166,0,0,0-.138-1.518Zm62.787,1.948a5.389,5.389,0,0,0-4.983-3.733c-3.043,0-5.527,2.354-5.527,5.949a5.773,5.773,0,0,0,5.8,5.941,5.647,5.647,0,0,0,4.837-2.622l-1.932-1.388a3.365,3.365,0,0,1-2.905,1.664,3,3,0,0,1-2.906-1.8l7.889-3.312-.276-.7Zm-8.026,1.94a3.36,3.36,0,0,1,3.043-3.458,2.445,2.445,0,0,1,2.216,1.242Zm-6.5,5.665h2.629l.008-17.288h-2.629Zm-4.148-10.1a4.542,4.542,0,0,0-3.173-1.38,5.933,5.933,0,0,0-5.673,5.941,5.724,5.724,0,0,0,5.665,5.811,3.965,3.965,0,0,0,3.043-1.38h.138v.828c0,2.208-1.242,3.458-3.182,3.458a3.083,3.083,0,0,1-2.906-2.078l-2.207.966a5.688,5.688,0,0,0,5.251,3.458c3.043,0,5.535-1.794,5.535-6.079v-10.51h-2.492Zm-3.043,8.157a3.607,3.607,0,0,1,.008-7.191,3.623,3.623,0,0,1-.008,7.191Zm33.747-15.34h-6.217l-.008,17.288h2.629v-6.5h3.6a5.4,5.4,0,1,0,0-10.787Zm.139,8.295h-3.734v-5.941h3.734a3.033,3.033,0,0,1,3.043,2.906A3.158,3.158,0,0,1,7269.076,3466.871Zm15.908-2.483a4.648,4.648,0,0,0-4.57,2.629l2.354.966a2.444,2.444,0,0,1,2.354-1.242,2.593,2.593,0,0,1,2.759,2.216v.138a5.379,5.379,0,0,0-2.629-.7c-2.484,0-4.976,1.388-4.976,3.872a4.045,4.045,0,0,0,4.285,3.871,3.889,3.889,0,0,0,3.32-1.656h.138v1.38l2.491.008v-6.639A5.236,5.236,0,0,0,7284.984,3464.388Zm-.284,9.544c-.828,0-2.07-.414-2.07-1.526,0-1.379,1.518-1.793,2.76-1.793a5.344,5.344,0,0,1,2.354.552,3.215,3.215,0,0,1-3.043,2.768Zm14.52-9.123-2.906,7.467h-.138l-3.036-7.467-2.768-.008,4.562,10.519-2.63,5.8h2.63l7.053-16.314Zm-23.229,11.054h2.622l.008-17.288h-2.63Z" transform="translate(-7126.796 -3429.611)" fill="#2b2a29" fill-rule="evenodd"/>
      <path id="Path_1214" data-name="Path 1214" d="M1885.56,1821a2.706,2.706,0,0,0-.552,1.94L1885,1853.5a2.751,2.751,0,0,0,.69,1.94l.138.138,17.158-17.15v-.276Z" transform="translate(-1869.813 -1805.897)" fill="#2b2a29" fill-rule="evenodd"/>
      <path id="Path_1215" data-name="Path 1215" d="M4209.665,3247.752l-5.665-5.673v-.414l5.673-5.665.138.138,6.777,3.871c1.932,1.112,1.932,2.906,0,4.01Z" transform="translate(-4169.991 -3209.412)" fill="#2b2a29" fill-rule="evenodd"/>
      <path id="Path_1216" data-name="Path 1216" d="M2033.091,4020.811l-5.8-5.811L2010,4032.288c.69.69,1.656.69,2.9.138Z" transform="translate(-1993.799 -3982.09)" fill="#2b2a29" fill-rule="evenodd"/>
      <path id="Path_1217" data-name="Path 1217" d="M2033.091,1739.055l-20.185-11.484c-1.25-.69-2.216-.552-2.906.138l17.28,17.15Z" transform="translate(-1993.799 -1712.776)" fill="#2b2a29" fill-rule="evenodd"/>
      <path id="Path_1218" data-name="Path 1218" d="M1975.961,4650l-20.055,11.338a2.269,2.269,0,0,1-2.768,0l-.138.138.138.138a2.268,2.268,0,0,0,2.768,0Z" transform="translate(-1937.261 -4611.936)" fill="#2b2a29" fill-rule="evenodd"/>
      <path id="Path_1219" data-name="Path 1219" d="M1885.552,3969a2.732,2.732,0,0,1-.552-1.94v.138a2.751,2.751,0,0,0,.69,1.94V3969Zm29.876-15.21-6.915,3.872.138.138,6.777-3.871a2.305,2.305,0,0,0,1.388-1.932C1916.816,3952.69,1916.256,3953.242,1915.428,3953.793Z" transform="translate(-1869.813 -3919.601)" fill="#2b2a29" fill-rule="evenodd"/>
    </g>
  </g>
</svg>
